<svg width="16" height="16" viewBox="0 0 16 16" fill="none" xmlns="http://www.w3.org/2000/svg">
<path d="M9.33341 8.66663H8.66675V7.33329C8.66675 6.9651 8.36827 6.66663 8.00008 6.66663C7.63189 6.66663 7.33341 6.9651 7.33341 7.33329V8.66663H6.66675C6.41048 8.66663 6.17689 8.81352 6.06588 9.0445C5.95487 9.27548 5.98608 9.54964 6.14617 9.74976L7.4795 11.4164C7.60602 11.5746 7.79756 11.6666 8.00008 11.6666C8.2026 11.6666 8.39415 11.5746 8.52066 11.4164L9.85399 9.74975C10.0141 9.54964 10.0453 9.27548 9.93428 9.0445C9.82327 8.81352 9.58968 8.66663 9.33341 8.66663Z" fill="#9AA1B4"/>
<path fill-rule="evenodd" clip-rule="evenodd" d="M5.33341 1.66663C4.49406 1.66663 3.70369 2.06181 3.20008 2.73329L2.06675 4.2444C1.8071 4.5906 1.66675 5.01166 1.66675 5.4444V11.6666C1.66675 13.1394 2.86066 14.3333 4.33341 14.3333H11.6667C13.1395 14.3333 14.3334 13.1394 14.3334 11.6666V5.4444C14.3334 5.01166 14.1931 4.5906 13.9334 4.2444L12.8001 2.73329C12.2965 2.06181 11.5061 1.66663 10.6667 1.66663H5.33341ZM4.26675 3.53329C4.51855 3.19755 4.91374 2.99996 5.33341 2.99996H10.6667C11.0864 2.99996 11.4816 3.19755 11.7334 3.53329L12.3334 4.33329H3.66675L4.26675 3.53329ZM3.00008 5.66663V11.6666C3.00008 12.403 3.59703 13 4.33341 13H11.6667C12.4031 13 13.0001 12.403 13.0001 11.6666V5.66663H3.00008Z" fill="#9AA1B4"/>
</svg>
