<svg width="16" height="16" viewBox="0 0 16 16" fill="none" xmlns="http://www.w3.org/2000/svg">
<path fill-rule="evenodd" clip-rule="evenodd" d="M8.0001 5.33329C6.52735 5.33329 5.33344 6.5272 5.33344 7.99996C5.33344 9.47272 6.52735 10.6666 8.0001 10.6666C9.47286 10.6666 10.6668 9.47272 10.6668 7.99996C10.6668 6.5272 9.47286 5.33329 8.0001 5.33329ZM6.66677 7.99996C6.66677 7.26358 7.26372 6.66663 8.0001 6.66663C8.73648 6.66663 9.33344 7.26358 9.33344 7.99996C9.33344 8.73634 8.73648 9.33329 8.0001 9.33329C7.26372 9.33329 6.66677 8.73634 6.66677 7.99996Z" fill="#9AA1B4"/>
<path fill-rule="evenodd" clip-rule="evenodd" d="M7.89155 1.16663C6.64169 1.16663 5.55952 2.03471 5.28839 3.25481L5.28065 3.28961L5.24665 3.27891C4.05445 2.90367 2.76158 3.40681 2.13665 4.48923L2.02803 4.67736C1.40309 5.75977 1.61379 7.131 2.53486 7.97586L2.56113 7.99995L2.53485 8.02406C1.61378 8.86892 1.40308 10.2401 2.02801 11.3226L2.13663 11.5107C2.76156 12.5931 4.05443 13.0962 5.24664 12.721L5.28065 12.7103L5.28839 12.7451C5.55952 13.9652 6.64169 14.8333 7.89155 14.8333H8.10879C9.35865 14.8333 10.4408 13.9652 10.712 12.7451L10.7197 12.7103L10.7537 12.721C11.9459 13.0962 13.2388 12.5931 13.8637 11.5107L13.9723 11.3226C14.5973 10.2401 14.3866 8.86892 13.4655 8.02406L13.4392 7.99996L13.4655 7.97587C14.3865 7.13101 14.5972 5.75977 13.9723 4.67736L13.8637 4.48923C13.2388 3.40681 11.9459 2.90367 10.7537 3.27891L10.7197 3.28961L10.712 3.25481C10.4408 2.03471 9.35865 1.16663 8.10879 1.16663H7.89155ZM6.58997 3.54405C6.72554 2.934 7.26662 2.49996 7.89155 2.49996H8.10879C8.73372 2.49996 9.27481 2.934 9.41037 3.54405L9.41811 3.57886C9.58768 4.34195 10.3743 4.79613 11.12 4.56144L11.154 4.55073C11.7501 4.36311 12.3965 4.61469 12.709 5.15589L12.8176 5.34403C13.1301 5.88523 13.0247 6.57084 12.5642 6.99328L12.5379 7.01737C11.9619 7.54577 11.9619 8.45413 12.5379 8.98254L12.5642 9.00664C13.0247 9.42907 13.1301 10.1147 12.8176 10.6559L12.709 10.844C12.3965 11.3852 11.7501 11.6368 11.154 11.4492L11.12 11.4385C10.3743 11.2038 9.58768 11.658 9.41811 12.4211L9.41037 12.4559C9.27481 13.0659 8.73372 13.5 8.10879 13.5H7.89155C7.26662 13.5 6.72553 13.0659 6.58997 12.4559L6.58223 12.4211C6.41266 11.658 5.62599 11.2038 4.88035 11.4385L4.84634 11.4492C4.25024 11.6368 3.6038 11.3852 3.29133 10.844L3.18271 10.6559C2.87025 10.1147 2.9756 9.42907 3.43613 9.00664L3.46241 8.98254C4.03848 8.45413 4.03848 7.54577 3.46241 7.01737L3.43615 6.99328C2.97561 6.57085 2.87026 5.88523 3.18273 5.34403L3.29135 5.15589C3.60381 4.61469 4.25025 4.36311 4.84635 4.55073L4.88035 4.56144C5.626 4.79612 6.41266 4.34195 6.58223 3.57885L6.58997 3.54405Z" fill="#9AA1B4"/>
</svg>
