<svg width="16" height="16" viewBox="0 0 16 16" fill="none" xmlns="http://www.w3.org/2000/svg">
<path fill-rule="evenodd" clip-rule="evenodd" d="M10.6667 1.33337C12.1395 1.33337 13.3334 2.52728 13.3334 4.00004V6.33337C13.3334 6.70156 13.0349 7.00004 12.6667 7.00004C12.2986 7.00004 12.0001 6.70156 12.0001 6.33337V4.00004C12.0001 3.26366 11.4031 2.66671 10.6667 2.66671H8.00008V5.33337C8.00008 6.06975 7.40313 6.66671 6.66675 6.66671H4.00008V12C4.00008 12.7364 4.59704 13.3334 5.33341 13.3334H6.00008C6.36827 13.3334 6.66675 13.6319 6.66675 14C6.66675 14.3682 6.36827 14.6667 6.00008 14.6667H5.33341C3.86066 14.6667 2.66675 13.4728 2.66675 12V5.00004C2.66675 4.82323 2.73699 4.65366 2.86201 4.52864L5.86201 1.52864C5.98703 1.40361 6.1566 1.33337 6.33341 1.33337H10.6667ZM4.00008 5.33337H6.66675V2.66671H6.60956L4.00008 5.27618V5.33337Z" fill="#9AA1B4"/>
<path fill-rule="evenodd" clip-rule="evenodd" d="M11.0573 8.66671C11.578 8.14601 12.4222 8.14601 12.9429 8.66671L14.0001 9.7239C14.5208 10.2446 14.5208 11.0888 14.0001 11.6095L11.1382 14.4714C11.0131 14.5965 10.8436 14.6667 10.6667 14.6667H8.66675C8.48994 14.6667 8.32037 14.5965 8.19534 14.4714C8.07032 14.3464 8.00008 14.1769 8.00008 14V12C8.00008 11.8232 8.07032 11.6537 8.19534 11.5286L11.0573 8.66671ZM13.0573 10.6667L12.0001 9.60952L9.33342 12.2762V13.3334H10.3906L13.0573 10.6667Z" fill="#9AA1B4"/>
</svg>
