<svg width="16" height="16" viewBox="0 0 16 16" fill="none" xmlns="http://www.w3.org/2000/svg">
<path fill-rule="evenodd" clip-rule="evenodd" d="M4.9376 2C3.68773 2 2.60556 2.86809 2.33443 4.08819L1.38088 8.37917C1.34922 8.52162 1.33325 8.6671 1.33325 8.81303V11.3333C1.33325 12.8061 2.52716 14 3.99992 14H11.9999C13.4727 14 14.6666 12.8061 14.6666 11.3333V8.81303C14.6666 8.6671 14.6506 8.52162 14.619 8.37917L13.6654 4.08819C13.3943 2.86809 12.3121 2 11.0622 2H4.9376ZM13.2362 8.3033L12.3638 4.37743C12.2283 3.76738 11.6872 3.33333 11.0622 3.33333H4.9376C4.31266 3.33333 3.77158 3.76738 3.63601 4.37743L2.7636 8.3033C3.13315 8.10958 3.55374 8 3.99992 8H6.11372C6.39627 8 6.64813 8.17811 6.74228 8.4445C6.92564 8.96327 7.42042 9.33333 7.99992 9.33333C8.57942 9.33333 9.0742 8.96327 9.25756 8.4445C9.35171 8.17811 9.60357 8 9.88612 8H11.9999C12.4461 8 12.8667 8.10958 13.2362 8.3033ZM2.66659 10.6667V11.3333C2.66659 12.0697 3.26354 12.6667 3.99992 12.6667H11.9999C12.7363 12.6667 13.3333 12.0697 13.3333 11.3333V10.6667C13.3333 9.93029 12.7363 9.33333 11.9999 9.33333H10.3096C9.84888 10.1299 8.9877 10.6667 7.99992 10.6667C7.01213 10.6667 6.15096 10.1299 5.6902 9.33333H3.99992C3.26354 9.33333 2.66659 9.93029 2.66659 10.6667Z" fill="#9AA1B4"/>
</svg>
