<svg width="16" height="16" viewBox="0 0 16 16" fill="none" xmlns="http://www.w3.org/2000/svg">
<path d="M4.36972 4.11197C4.06337 3.90773 3.64945 3.99051 3.44522 4.29687C3.24098 4.60322 3.32377 5.01713 3.63012 5.22137L5.89052 6.7283C6.56232 7.17617 7.43752 7.17617 8.10932 6.7283L10.3697 5.22137C10.6761 5.01713 10.7589 4.60322 10.5546 4.29687C10.3504 3.99051 9.93647 3.90773 9.63012 4.11197L7.36972 5.6189C7.14579 5.76819 6.85405 5.76819 6.63012 5.6189L4.36972 4.11197Z" fill="#9AA1B4"/>
<path fill-rule="evenodd" clip-rule="evenodd" d="M1.33325 9.33333C1.33325 10.4379 2.22868 11.3333 3.33325 11.3333V12C3.33325 13.1046 4.22868 14 5.33325 14H12.6666C13.7712 14 14.6666 13.1046 14.6666 12V6.66667C14.6666 5.5621 13.7712 4.66667 12.6666 4.66667V4C12.6666 2.89543 11.7712 2 10.6666 2H3.33325C2.22868 2 1.33325 2.89543 1.33325 4V9.33333ZM3.33325 3.33333C2.96506 3.33333 2.66659 3.63181 2.66659 4V9.33333C2.66659 9.70152 2.96506 10 3.33325 10H10.6666C11.0348 10 11.3333 9.70152 11.3333 9.33333V4C11.3333 3.63181 11.0348 3.33333 10.6666 3.33333H3.33325ZM13.3333 6.66667C13.3333 6.29848 13.0348 6 12.6666 6V9.33333C12.6666 10.4379 11.7712 11.3333 10.6666 11.3333H4.66659V12C4.66659 12.3682 4.96506 12.6667 5.33325 12.6667H12.6666C13.0348 12.6667 13.3333 12.3682 13.3333 12V6.66667Z" fill="#9AA1B4"/>
</svg>
