<svg width="16" height="16" viewBox="0 0 16 16" fill="none" xmlns="http://www.w3.org/2000/svg">
<path d="M1.33325 5.00004C1.33325 3.52728 2.52716 2.33337 3.99992 2.33337H11.9999C13.4727 2.33337 14.6666 3.52728 14.6666 5.00004V11C14.6666 12.4728 13.4727 13.6667 11.9999 13.6667H7.99992C7.63173 13.6667 7.33325 13.3682 7.33325 13C7.33325 12.6319 7.63173 12.3334 7.99992 12.3334H11.9999C12.7363 12.3334 13.3333 11.7364 13.3333 11V5.00004C13.3333 4.26366 12.7363 3.66671 11.9999 3.66671H3.99992C3.26354 3.66671 2.66659 4.26366 2.66659 5.00004V8.00004C2.66659 8.36823 2.36811 8.66671 1.99992 8.66671C1.63173 8.66671 1.33325 8.36823 1.33325 8.00004V5.00004Z" fill="#9AA1B4"/>
<path d="M3.79409 5.27459C4.01065 4.97682 4.4276 4.91099 4.72537 5.12755L7.6078 7.22387C7.84157 7.39388 8.15827 7.39388 8.39203 7.22387L11.2745 5.12755C11.5722 4.91099 11.9892 4.97682 12.2057 5.27459C12.4223 5.57236 12.3565 5.98931 12.0587 6.20586L9.17626 8.30218C8.47496 8.81222 7.52488 8.81222 6.82358 8.30218L3.94114 6.20586C3.64337 5.98931 3.57754 5.57236 3.79409 5.27459Z" fill="#9AA1B4"/>
<path d="M1.99992 10C1.63173 10 1.33325 10.2985 1.33325 10.6667C1.33325 11.0349 1.63173 11.3334 1.99992 11.3334H5.33325C5.70144 11.3334 5.99992 11.0349 5.99992 10.6667C5.99992 10.2985 5.70144 10 5.33325 10H1.99992Z" fill="#9AA1B4"/>
<path d="M3.66659 12.3334C3.2984 12.3334 2.99992 12.6319 2.99992 13C2.99992 13.3682 3.2984 13.6667 3.66659 13.6667H5.33325C5.70144 13.6667 5.99992 13.3682 5.99992 13C5.99992 12.6319 5.70144 12.3334 5.33325 12.3334H3.66659Z" fill="#9AA1B4"/>
</svg>
