<svg width="157" height="157" viewBox="0 0 157 157" fill="none" xmlns="http://www.w3.org/2000/svg">
<path fill-rule="evenodd" clip-rule="evenodd" d="M143.829 83.8137C143.829 79.8496 141.848 76.1484 138.549 73.9502C128.624 67.3353 107.222 53.0729 96.5509 45.9609C92.7253 43.4115 87.7424 43.4115 83.9169 45.9609C73.2457 53.0729 51.8439 67.3353 41.9183 73.9502C38.62 76.1484 36.6384 79.8496 36.6384 83.8137C36.6384 97.658 36.6384 130.343 36.6384 142.933C36.6384 145.731 38.9069 148 41.7049 148C59.7435 148 120.724 148 138.763 148C141.561 148 143.829 145.731 143.829 142.933C143.829 130.343 143.829 97.658 143.829 83.8137Z" fill="url(#paint0_linear_2_1068)"/>
<g filter="url(#filter0_f_2_1068)">
<path fill-rule="evenodd" clip-rule="evenodd" d="M133.771 69.7396L105.544 54.6763H77.7169L46.6975 77.5045V113.388H133.771V69.7396Z" fill="#8FA8FB"/>
</g>
<path fill-rule="evenodd" clip-rule="evenodd" d="M133.771 57.9792C133.771 56.1552 132.292 54.6763 130.468 54.6763C116.679 54.6763 63.7885 54.6763 49.9999 54.6763C48.176 54.6763 46.6975 56.1552 46.6975 57.9792C46.6975 70.3701 46.6975 113.388 46.6975 113.388H133.771V57.9792Z" fill="url(#paint1_linear_2_1068)"/>
<g filter="url(#filter1_f_2_1068)">
<path fill-rule="evenodd" clip-rule="evenodd" d="M141.276 79.821L99.4818 107.339L90.2339 100.999L80.9859 107.339L38.7346 80.0358L46.6974 140.863H133.77L141.276 79.821Z" fill="#CAD6FD"/>
</g>
<path fill-rule="evenodd" clip-rule="evenodd" d="M53.5229 99.1083H121.429C122.498 99.1083 123.366 98.2407 123.366 97.1715C123.366 96.1024 122.498 95.2343 121.429 95.2343H53.5229C52.4538 95.2343 51.5857 96.1024 51.5857 97.1715C51.5857 98.2407 52.4538 99.1083 53.5229 99.1083ZM76.4329 91.8396H126.058C127.127 91.8396 127.995 90.9719 127.995 89.9028C127.995 88.8337 127.127 87.966 126.058 87.966H76.4329C75.3638 87.966 74.4957 88.8337 74.4957 89.9028C74.4957 90.9719 75.3638 91.8396 76.4329 91.8396ZM58.2984 78.4192H64.8114C65.8805 78.4192 66.7482 77.5511 66.7482 76.482C66.7482 75.4133 65.8805 74.5452 64.8114 74.5452H58.2984C57.2292 74.5452 56.3616 75.4133 56.3616 76.482C56.3616 77.5511 57.2292 78.4192 58.2984 78.4192ZM58.2984 71.0212H71.3244C72.3935 71.0212 73.2616 70.1531 73.2616 69.084C73.2616 68.0153 72.3935 67.1472 71.3244 67.1472H58.2984C57.2292 67.1472 56.3616 68.0153 56.3616 69.084C56.3616 70.1531 57.2292 71.0212 58.2984 71.0212Z" fill="url(#paint2_linear_2_1068)"/>
<path fill-rule="evenodd" clip-rule="evenodd" d="M138.448 148C143.55 148 143.829 143.24 143.829 143.24V84.2519C143.022 80.393 140.047 80.8384 136.406 83.1873C133.25 85.2223 95.464 110.201 95.464 110.201C95.464 110.201 128.793 148 138.448 148Z" fill="url(#paint3_linear_2_1068)"/>
<path fill-rule="evenodd" clip-rule="evenodd" d="M42.0197 148C36.9176 148 36.6384 143.24 36.6384 143.24V84.2519C37.4458 80.393 40.4211 80.8384 44.062 83.1873C47.2173 85.2223 85.0038 110.201 85.0038 110.201C85.0038 110.201 51.6743 148 42.0197 148Z" fill="url(#paint4_linear_2_1068)"/>
<g filter="url(#filter2_f_2_1068)">
<path fill-rule="evenodd" clip-rule="evenodd" d="M50.01 133.101C43.8561 138.753 136.612 138.753 130.458 133.101C119.277 122.831 103.102 109.888 94.7856 103.978C92.0588 102.045 88.4091 102.045 85.6824 103.978C77.366 109.888 61.1906 122.831 50.01 133.101Z" fill="#B9C8FA"/>
</g>
<path fill-rule="evenodd" clip-rule="evenodd" d="M37.0565 144.951C37.836 146.745 39.6243 148 41.705 148C59.7436 148 120.724 148 138.763 148C140.844 148 142.632 146.745 143.411 144.951C142.387 141.587 139.339 138.753 132.824 133.101C120.985 122.831 103.102 109.888 94.7855 103.978C92.0588 102.045 88.4091 102.045 85.6823 103.978C77.366 109.888 59.4827 122.831 47.6441 133.101C41.1288 138.753 38.0818 141.587 37.0565 144.951Z" fill="url(#paint5_linear_2_1068)"/>
<path fill-rule="evenodd" clip-rule="evenodd" d="M57.1471 40.6259L69.1049 28.8774L68.2674 23.158L58.478 29.8126L57.1471 40.6259Z" fill="url(#paint6_linear_2_1068)"/>
<path fill-rule="evenodd" clip-rule="evenodd" d="M91.907 8C91.907 8 55.3953 17.8154 43.977 20.8853C43.4658 21.0228 43.0957 21.466 43.0518 21.9937C43.008 22.5215 43.3004 23.0199 43.7819 23.2397C51.3284 26.6815 70.1977 35.288 76.7948 38.2966C77.4015 38.5735 78.0951 38.5909 78.7151 38.3451C79.3351 38.0988 79.8277 37.6108 80.0799 36.9931C83.0565 29.6961 91.907 8 91.907 8Z" fill="url(#paint7_linear_2_1068)"/>
<path fill-rule="evenodd" clip-rule="evenodd" d="M54.8439 28.2852L57.1471 40.6259L61.5433 31.3404L91.9071 8L54.8439 28.2852Z" fill="url(#paint8_linear_2_1068)"/>
<path fill-rule="evenodd" clip-rule="evenodd" d="M39.9838 133.06C39.7152 132.888 39.4488 132.714 39.1843 132.539C38.7388 132.243 38.1375 132.365 37.8419 132.811C37.5468 133.256 37.6683 133.857 38.1138 134.153C38.3856 134.333 38.6598 134.512 38.9362 134.69C39.3858 134.979 39.9852 134.849 40.2744 134.399C40.5636 133.95 40.4334 133.35 39.9838 133.06ZM36.0646 130.339C35.8092 130.147 35.5561 129.954 35.3053 129.761C34.8826 129.434 34.2736 129.512 33.9469 129.935C33.6202 130.357 33.6979 130.966 34.121 131.293C34.3791 131.493 34.64 131.691 34.9027 131.888C35.3308 132.209 35.938 132.122 36.2588 131.694C36.5795 131.267 36.4923 130.659 36.0646 130.339ZM32.3592 127.338C32.1189 127.128 31.8813 126.917 31.6464 126.705C31.2494 126.347 30.6367 126.378 30.2785 126.775C29.9203 127.172 29.9518 127.785 30.3484 128.143C30.591 128.362 30.8359 128.579 31.0836 128.796C31.4861 129.148 32.0983 129.107 32.4501 128.705C32.8024 128.302 32.7613 127.69 32.3592 127.338ZM28.8991 124.063C28.6766 123.835 28.4569 123.605 28.2398 123.376C27.873 122.987 27.2594 122.969 26.871 123.336C26.4822 123.703 26.4644 124.316 26.8312 124.705C27.0556 124.942 27.2827 125.179 27.5125 125.415C27.8858 125.798 28.4994 125.805 28.8818 125.433C29.2647 125.059 29.2724 124.446 28.8991 124.063ZM25.7201 120.52C25.5177 120.274 25.318 120.028 25.1215 119.78C24.7889 119.362 24.179 119.293 23.7605 119.625C23.3424 119.958 23.273 120.568 23.6056 120.986C23.8094 121.242 24.0159 121.497 24.2256 121.752C24.5655 122.164 25.1759 122.223 25.5885 121.883C26.0011 121.544 26.06 120.933 25.7201 120.52ZM22.8599 116.721C22.6799 116.459 22.5031 116.196 22.3295 115.932C22.0357 115.486 21.4344 115.363 20.988 115.656C20.5416 115.951 20.4183 116.551 20.7121 116.998C20.8921 117.272 21.0758 117.544 21.2622 117.817C21.5642 118.258 22.1677 118.37 22.6086 118.068C23.0495 117.766 23.1619 117.162 22.8599 116.721ZM20.3593 112.683C20.2049 112.406 20.0541 112.127 19.9061 111.849C19.6557 111.377 19.0691 111.197 18.5971 111.447C18.1247 111.697 17.9447 112.284 18.195 112.756C18.3486 113.046 18.5057 113.335 18.6661 113.624C18.9256 114.091 19.5159 114.26 19.9829 114C20.4503 113.741 20.6189 113.151 20.3593 112.683ZM18.264 108.428C18.1388 108.136 18.0169 107.845 17.8985 107.553C17.697 107.058 17.1318 106.819 16.6366 107.021C16.1413 107.222 15.9028 107.787 16.1038 108.282C16.2272 108.586 16.3542 108.89 16.4853 109.194C16.6969 109.685 17.2671 109.912 17.7578 109.701C18.249 109.489 18.4756 108.919 18.264 108.428ZM16.6261 103.986C16.5333 103.683 16.4438 103.38 16.3583 103.078C16.213 102.564 15.6776 102.264 15.1631 102.409C14.6491 102.555 14.3494 103.09 14.4947 103.604C14.5838 103.921 14.6774 104.238 14.7747 104.555C14.9319 105.066 15.4742 105.353 15.985 105.196C16.4959 105.039 16.7832 104.496 16.6261 103.986ZM15.5044 99.3965C15.4482 99.0854 15.3961 98.7751 15.3481 98.4654C15.2659 97.9372 14.7706 97.5753 14.2425 97.6571C13.7143 97.7389 13.352 98.2342 13.4338 98.7623C13.4845 99.0881 13.5393 99.4143 13.5987 99.7419C13.6937 100.268 14.1981 100.617 14.724 100.522C15.2504 100.427 15.5999 99.9224 15.5044 99.3965ZM14.9675 94.7165C14.9529 94.4017 14.9424 94.0883 14.9369 93.7762C14.9273 93.2421 14.4855 92.8159 13.951 92.8255C13.4164 92.8355 12.9906 93.2773 13.0002 93.8114C13.0066 94.1422 13.0171 94.4739 13.0326 94.807C13.0577 95.3411 13.5114 95.7541 14.0451 95.7295C14.5792 95.7043 14.9922 95.2506 14.9675 94.7165ZM15.0927 90.0256C15.1247 89.7136 15.1622 89.4038 15.2042 89.0954C15.2769 88.5658 14.9054 88.077 14.3759 88.0048C13.8463 87.9326 13.3574 88.3036 13.2853 88.8331C13.2405 89.1621 13.2007 89.4929 13.166 89.8259C13.1107 90.3578 13.4977 90.8339 14.0295 90.8891C14.5609 90.9444 15.0374 90.5574 15.0927 90.0256ZM25.6095 86.232C25.371 86.2078 25.143 86.1543 24.9329 86.0703C24.4367 85.8715 23.8724 86.1132 23.6741 86.6094C23.4754 87.1056 23.7171 87.6699 24.2132 87.8686C24.5861 88.0176 24.9904 88.1158 25.4135 88.1592C25.9453 88.2131 26.421 87.8257 26.4749 87.2938C26.5292 86.762 26.1413 86.2864 25.6095 86.232ZM28.9046 84.6256C28.7438 84.8458 28.5688 85.0427 28.3833 85.2173C27.9945 85.5837 27.9758 86.1973 28.3422 86.5866C28.7086 86.9754 29.3222 86.9941 29.7115 86.6277C29.9806 86.3741 30.2346 86.0876 30.4686 85.7678C30.7838 85.3361 30.6893 84.7298 30.2579 84.4145C29.8262 84.0992 29.2199 84.1938 28.9046 84.6256ZM15.9718 85.4567C16.0613 85.1597 16.1564 84.8673 16.2578 84.579C16.4355 84.075 16.1705 83.5213 15.6661 83.344C15.1622 83.1663 14.6084 83.4317 14.4312 83.9357C14.3197 84.2523 14.215 84.5735 14.1168 84.8993C13.9633 85.4114 14.2539 85.9515 14.7656 86.1055C15.2778 86.2594 15.8183 85.9684 15.9718 85.4567ZM22.3569 83.9357C22.1732 83.7054 21.9996 83.4669 21.836 83.2211C21.54 82.7761 20.9387 82.6555 20.4937 82.9515C20.0487 83.2476 19.9276 83.8493 20.2236 84.2943C20.4183 84.5867 20.6248 84.8705 20.8437 85.1446C21.1772 85.5622 21.7871 85.6303 22.2047 85.2968C22.6223 84.9632 22.6904 84.3533 22.3569 83.9357ZM29.9678 80.6401C29.976 80.8781 29.9724 81.1258 29.9564 81.3825C29.9541 81.4228 29.9514 81.463 29.9486 81.5027C29.9084 82.0354 30.3087 82.501 30.8414 82.5408C31.3746 82.581 31.8397 82.1807 31.8799 81.6475C31.8836 81.5991 31.8868 81.5502 31.89 81.5009C31.9096 81.1806 31.9137 80.8717 31.9037 80.5748C31.8859 80.0406 31.4372 79.6217 30.9031 79.6395C30.369 79.6573 29.95 80.106 29.9678 80.6401ZM18.1315 79.1968C18.1133 79.1817 18.0941 79.1671 18.074 79.1534C17.6353 78.8477 17.0313 78.9555 16.7257 79.3937C16.5319 79.6724 16.3446 79.9589 16.1646 80.2536C15.8859 80.71 16.0298 81.3062 16.4863 81.5849C16.9422 81.8637 17.5389 81.7197 17.8176 81.2633C17.9771 81.0024 18.143 80.7479 18.3147 80.5017C18.3422 80.4624 18.3659 80.4217 18.3865 80.3801L18.45 80.5757C18.6181 81.0828 19.1669 81.3579 19.674 81.1897C20.1816 81.0216 20.4567 80.4729 20.2885 79.9657C20.1912 79.6729 20.1026 79.3795 20.0226 79.0876C19.881 78.5717 19.3478 78.2684 18.8324 78.41C18.4527 78.5142 18.1877 78.8313 18.1315 79.1968ZM20.7445 77.8695C20.9766 77.6845 21.2151 77.5099 21.4591 77.3473C21.9041 77.0507 22.0243 76.449 21.7282 76.0045C21.4317 75.5594 20.8299 75.4393 20.3849 75.7353C20.0953 75.9286 19.812 76.1356 19.5365 76.3558C19.1184 76.6893 19.0499 77.2993 19.3834 77.7169C19.717 78.1345 20.3269 78.203 20.7445 77.8695ZM28.3966 77.0644C28.5935 77.2294 28.7776 77.4144 28.9453 77.6209C29.2825 78.0353 29.8929 78.0984 30.3077 77.7612C30.7226 77.424 30.7857 76.8136 30.4485 76.3988C30.2008 76.0949 29.9294 75.8217 29.6389 75.5786C29.229 75.236 28.6177 75.2903 28.2746 75.7002C27.9319 76.1105 27.9863 76.7218 28.3966 77.0644ZM19.3971 75.4598C19.3738 75.1482 19.3583 74.8421 19.351 74.541C19.3377 74.0065 18.8932 73.5838 18.3586 73.5971C17.8245 73.6103 17.4014 74.0549 17.4147 74.589C17.4229 74.9216 17.4398 75.2602 17.4654 75.6042C17.5051 76.1374 17.9702 76.5377 18.5034 76.4979C19.0366 76.4582 19.4369 75.993 19.3971 75.4598ZM24.6066 76.0392C24.8716 76.0031 25.1444 75.9885 25.4194 75.9949C25.9536 76.0081 26.3981 75.585 26.4109 75.0505C26.4242 74.5159 26.0006 74.0718 25.4665 74.0585C25.0877 74.0494 24.7126 74.0704 24.3471 74.1198C23.8176 74.191 23.4457 74.6795 23.5169 75.209C23.5887 75.7385 24.0766 76.1105 24.6066 76.0392ZM19.6758 70.9224C19.7407 70.625 19.8147 70.3335 19.8979 70.0479C20.0468 69.5344 19.7512 68.9966 19.2377 68.8477C18.7246 68.6987 18.1868 68.9943 18.0379 69.5074C17.9428 69.835 17.8579 70.169 17.7834 70.5098C17.6696 71.0321 18.0009 71.5484 18.5231 71.6626C19.0453 71.7764 19.5621 71.4447 19.6758 70.9224ZM21.3659 66.761C21.5253 66.5033 21.6926 66.2511 21.868 66.0035C22.1764 65.5672 22.0727 64.9622 21.6364 64.6534C21.2 64.345 20.5951 64.4487 20.2867 64.885C20.0884 65.1651 19.8988 65.4507 19.7188 65.7422C19.4378 66.1968 19.5785 66.7939 20.0331 67.0749C20.4877 67.3564 21.0849 67.2156 21.3659 66.761ZM24.2973 63.248C24.5221 63.0364 24.7524 62.8286 24.9881 62.6229C25.3911 62.2716 25.4332 61.6594 25.0823 61.2564C24.7309 60.8534 24.1187 60.8114 23.7157 61.1627C23.4612 61.3843 23.2126 61.6091 22.9705 61.8371C22.5812 62.2035 22.562 62.8167 22.9285 63.2059C23.2949 63.5952 23.908 63.6144 24.2973 63.248ZM27.9712 60.3257C28.2298 60.1466 28.4916 59.9689 28.7571 59.792C29.2021 59.496 29.3227 58.8942 29.0266 58.4492C28.7301 58.0042 28.1284 57.8836 27.6838 58.1797C27.4078 58.3633 27.136 58.5479 26.8673 58.7343C26.4283 59.0386 26.3186 59.6426 26.6234 60.0817C26.9281 60.5212 27.5317 60.6304 27.9712 60.3257ZM31.9992 57.7584C32.2733 57.5939 32.5493 57.4299 32.8266 57.2659C33.2867 56.994 33.4398 56.3996 33.1674 55.9395C32.8956 55.4794 32.3012 55.3268 31.8411 55.5987C31.5601 55.7645 31.2809 55.9308 31.0036 56.0967C30.5453 56.3717 30.3959 56.9666 30.671 57.4253C30.9456 57.8836 31.5409 58.033 31.9992 57.7584ZM36.167 55.3126C36.4457 55.1495 36.7253 54.9855 37.0049 54.8206C37.4654 54.5492 37.6185 53.9548 37.3471 53.4942C37.0757 53.0341 36.4813 52.8806 36.0207 53.152C35.743 53.316 35.4656 53.4787 35.1887 53.6409C34.7273 53.9109 34.5719 54.5044 34.842 54.9659C35.112 55.4273 35.7055 55.5827 36.167 55.3126ZM40.3407 52.7952C40.6166 52.6211 40.8917 52.4452 41.1663 52.2679C41.615 51.9773 41.7438 51.3774 41.4532 50.9288C41.1631 50.4796 40.5627 50.3512 40.1141 50.6418C39.8459 50.815 39.5768 50.9868 39.3072 51.1567C38.8553 51.4423 38.7196 52.0408 39.0052 52.4927C39.2903 52.9446 39.8888 53.0803 40.3407 52.7952ZM44.4057 50.0369C44.6702 49.8418 44.9329 49.644 45.1943 49.4429C45.6178 49.1172 45.6973 48.5086 45.3715 48.085C45.0458 47.6611 44.4372 47.5816 44.0136 47.9073C43.7624 48.1006 43.5092 48.2911 43.2547 48.4789C42.8248 48.7964 42.7334 49.4032 43.051 49.8331C43.3685 50.2631 43.9757 50.3544 44.4057 50.0369ZM48.2248 46.8903C48.4674 46.665 48.7073 46.4361 48.9444 46.204C49.326 45.8298 49.3323 45.2162 48.9581 44.8343C48.584 44.4527 47.9699 44.4468 47.5884 44.821C47.3641 45.0408 47.1365 45.2578 46.9067 45.4712C46.5151 45.8348 46.4923 46.4485 46.856 46.84C47.2197 47.2316 47.8333 47.254 48.2248 46.8903Z" fill="#CAD5FE"/>
<g filter="url(#filter3_f_2_1068)">
<path fill-rule="evenodd" clip-rule="evenodd" d="M112.321 73.2769C112.681 72.4417 112.513 71.4722 111.893 70.807C109.101 67.7924 107.118 63.7205 107.398 57.1175C107.794 47.7768 137.634 70.5438 132.033 74.2684C129.617 75.8748 126.553 76.2691 124.337 76.2691C123.437 76.2691 122.554 76.1988 121.692 76.0635C120.427 75.8602 119.131 76.0215 117.955 76.5291C116.381 77.1806 114.148 78.1433 112.347 78.92C111.855 79.132 111.283 79.0228 110.905 78.6441C110.526 78.2653 110.417 77.6937 110.629 77.2021C111.206 75.8629 111.858 74.3511 112.321 73.2769Z" fill="#C9D4FC"/>
</g>
<path fill-rule="evenodd" clip-rule="evenodd" d="M112.321 72.5193C112.681 71.6841 112.513 70.7146 111.893 70.0494C109.101 67.0352 107.398 63.0013 107.398 58.5726C107.398 49.2237 114.988 41.6333 124.337 41.6333C133.686 41.6333 141.276 49.2237 141.276 58.5726C141.276 67.9216 133.686 75.512 124.337 75.512C123.437 75.512 122.554 75.4416 121.692 75.3059C120.427 75.1026 119.131 75.2643 117.955 75.7715C116.381 76.423 114.148 77.3857 112.347 78.1624C111.855 78.3744 111.283 78.2652 110.905 77.8864C110.526 77.5077 110.417 76.9361 110.629 76.4445C111.206 75.1053 111.858 73.5935 112.321 72.5193Z" fill="url(#paint9_linear_2_1068)"/>
<path d="M116.476 60.9037C117.896 60.9037 119.047 59.7527 119.047 58.3328C119.047 56.9129 117.896 55.7618 116.476 55.7618C115.056 55.7618 113.905 56.9129 113.905 58.3328C113.905 59.7527 115.056 60.9037 116.476 60.9037Z" fill="url(#paint10_linear_2_1068)"/>
<path d="M124.337 60.9037C125.757 60.9037 126.908 59.7527 126.908 58.3328C126.908 56.9129 125.757 55.7618 124.337 55.7618C122.917 55.7618 121.766 56.9129 121.766 58.3328C121.766 59.7527 122.917 60.9037 124.337 60.9037Z" fill="url(#paint11_linear_2_1068)"/>
<path d="M132.198 60.9037C133.618 60.9037 134.769 59.7527 134.769 58.3328C134.769 56.9129 133.618 55.7618 132.198 55.7618C130.778 55.7618 129.627 56.9129 129.627 58.3328C129.627 59.7527 130.778 60.9037 132.198 60.9037Z" fill="url(#paint12_linear_2_1068)"/>
<defs>
<filter id="filter0_f_2_1068" x="32.6975" y="40.6763" width="115.073" height="86.7113" filterUnits="userSpaceOnUse" color-interpolation-filters="sRGB">
<feFlood flood-opacity="0" result="BackgroundImageFix"/>
<feBlend mode="normal" in="SourceGraphic" in2="BackgroundImageFix" result="shape"/>
<feGaussianBlur stdDeviation="7" result="effect1_foregroundBlur_2_1068"/>
</filter>
<filter id="filter1_f_2_1068" x="23.5918" y="64.6782" width="132.827" height="91.3281" filterUnits="userSpaceOnUse" color-interpolation-filters="sRGB">
<feFlood flood-opacity="0" result="BackgroundImageFix"/>
<feBlend mode="normal" in="SourceGraphic" in2="BackgroundImageFix" result="shape"/>
<feGaussianBlur stdDeviation="7.57143" result="effect1_foregroundBlur_2_1068"/>
</filter>
<filter id="filter2_f_2_1068" x="36.0975" y="88.9092" width="108.273" height="62.0498" filterUnits="userSpaceOnUse" color-interpolation-filters="sRGB">
<feFlood flood-opacity="0" result="BackgroundImageFix"/>
<feBlend mode="normal" in="SourceGraphic" in2="BackgroundImageFix" result="shape"/>
<feGaussianBlur stdDeviation="6.80952" result="effect1_foregroundBlur_2_1068"/>
</filter>
<filter id="filter3_f_2_1068" x="102.515" y="50.0287" width="35.0755" height="33.8553" filterUnits="userSpaceOnUse" color-interpolation-filters="sRGB">
<feFlood flood-opacity="0" result="BackgroundImageFix"/>
<feBlend mode="normal" in="SourceGraphic" in2="BackgroundImageFix" result="shape"/>
<feGaussianBlur stdDeviation="2.42857" result="effect1_foregroundBlur_2_1068"/>
</filter>
<linearGradient id="paint0_linear_2_1068" x1="90.2339" y1="34.8637" x2="90.2339" y2="93.4137" gradientUnits="userSpaceOnUse">
<stop stop-color="#DDE5FE"/>
<stop offset="1" stop-color="#B6C5FB"/>
</linearGradient>
<linearGradient id="paint1_linear_2_1068" x1="55.4273" y1="52.2172" x2="109.91" y2="138.1" gradientUnits="userSpaceOnUse">
<stop stop-color="#F9FBFF"/>
<stop offset="1" stop-color="#E1E8FD"/>
</linearGradient>
<linearGradient id="paint2_linear_2_1068" x1="56.42" y1="67.1006" x2="121.762" y2="98.7541" gradientUnits="userSpaceOnUse">
<stop stop-color="#DDE5FE"/>
<stop offset="1" stop-color="#AEC0FC"/>
</linearGradient>
<linearGradient id="paint3_linear_2_1068" x1="85.0039" y1="84.0321" x2="85.0039" y2="148" gradientUnits="userSpaceOnUse">
<stop stop-color="#E5EBFF"/>
<stop offset="1" stop-color="#B9C8FA"/>
</linearGradient>
<linearGradient id="paint4_linear_2_1068" x1="85.0038" y1="84.0321" x2="85.0038" y2="148" gradientUnits="userSpaceOnUse">
<stop stop-color="#E5EBFF"/>
<stop offset="1" stop-color="#B9C8FA"/>
</linearGradient>
<linearGradient id="paint5_linear_2_1068" x1="90.2654" y1="102.528" x2="89.7903" y2="148" gradientUnits="userSpaceOnUse">
<stop stop-color="#C7D3FE"/>
<stop offset="1" stop-color="#9DB3FF"/>
</linearGradient>
<linearGradient id="paint6_linear_2_1068" x1="54.8441" y1="23.9381" x2="55.1295" y2="51.4053" gradientUnits="userSpaceOnUse">
<stop stop-color="#A5B9FD"/>
<stop offset="1" stop-color="#7C99FB"/>
</linearGradient>
<linearGradient id="paint7_linear_2_1068" x1="29.5116" y1="9.24554" x2="29.5116" y2="39.3555" gradientUnits="userSpaceOnUse">
<stop stop-color="#E5EBFF"/>
<stop offset="1" stop-color="#B9C8FA"/>
</linearGradient>
<linearGradient id="paint8_linear_2_1068" x1="73.3864" y1="8" x2="68.9207" y2="43.7627" gradientUnits="userSpaceOnUse">
<stop stop-color="#C7D3FE"/>
<stop offset="1" stop-color="#9DB3FF"/>
</linearGradient>
<linearGradient id="paint9_linear_2_1068" x1="114.702" y1="44.6426" x2="143.829" y2="90.2656" gradientUnits="userSpaceOnUse">
<stop stop-color="#E8EDFF"/>
<stop offset="1" stop-color="#B9C8FA"/>
</linearGradient>
<linearGradient id="paint10_linear_2_1068" x1="113.905" y1="55.9519" x2="113.936" y2="62.6669" gradientUnits="userSpaceOnUse">
<stop stop-color="#A5B9FD"/>
<stop offset="1" stop-color="#7C99FB"/>
</linearGradient>
<linearGradient id="paint11_linear_2_1068" x1="121.766" y1="55.9519" x2="121.797" y2="62.6669" gradientUnits="userSpaceOnUse">
<stop stop-color="#A5B9FD"/>
<stop offset="1" stop-color="#7C99FB"/>
</linearGradient>
<linearGradient id="paint12_linear_2_1068" x1="129.627" y1="55.9519" x2="129.658" y2="62.6669" gradientUnits="userSpaceOnUse">
<stop stop-color="#A5B9FD"/>
<stop offset="1" stop-color="#7C99FB"/>
</linearGradient>
</defs>
</svg>
