<svg width="16" height="16" viewBox="0 0 16 16" fill="none" xmlns="http://www.w3.org/2000/svg">
<path d="M8.00041 2.66671C6.3764 2.66671 4.92242 3.39176 3.94319 4.53816L3.58547 5.00004H4.99992C5.36811 5.00004 5.66659 5.29852 5.66659 5.66671C5.66659 6.0349 5.36811 6.33337 4.99992 6.33337H1.99992C1.63173 6.33337 1.33325 6.0349 1.33325 5.66671V2.66671C1.33325 2.29852 1.63173 2.00004 1.99992 2.00004C2.36811 2.00004 2.66659 2.29852 2.66659 2.66671V4.00897L2.89853 3.70948C2.90468 3.70154 2.91101 3.69373 2.91752 3.68608C4.13934 2.24775 5.96343 1.33337 8.00041 1.33337C11.6823 1.33337 14.6671 4.31814 14.6671 8.00004C14.6671 11.6819 11.6823 14.6667 8.00041 14.6667C4.56844 14.6667 1.74295 12.074 1.3744 8.73996C1.33394 8.374 1.59782 8.04453 1.96378 8.00408C2.32974 7.96362 2.6592 8.2275 2.69966 8.59346C2.99436 11.2594 5.25564 13.3334 8.00041 13.3334C10.9459 13.3334 13.3337 10.9456 13.3337 8.00004C13.3337 5.05452 10.9459 2.66671 8.00041 2.66671Z" fill="#3663F2"/>
</svg>
