<svg width="16" height="16" viewBox="0 0 16 16" fill="none" xmlns="http://www.w3.org/2000/svg">
<path d="M7.99992 4.66671C8.36811 4.66671 8.66659 4.96518 8.66659 5.33337V8.66671C8.66659 9.0349 8.36811 9.33337 7.99992 9.33337C7.63173 9.33337 7.33325 9.0349 7.33325 8.66671V5.33337C7.33325 4.96518 7.63173 4.66671 7.99992 4.66671Z" fill="#9AA1B4"/>
<path d="M8.66659 11C8.66659 11.3682 8.36811 11.6667 7.99992 11.6667C7.63173 11.6667 7.33325 11.3682 7.33325 11C7.33325 10.6319 7.63173 10.3334 7.99992 10.3334C8.36811 10.3334 8.66659 10.6319 8.66659 11Z" fill="#9AA1B4"/>
<path fill-rule="evenodd" clip-rule="evenodd" d="M5.88554 1.33337C5.3551 1.33337 4.8464 1.54409 4.47132 1.91916L1.91904 4.47144C1.54397 4.84652 1.33325 5.35523 1.33325 5.88566V10.1144C1.33325 10.6449 1.54396 11.1536 1.91904 11.5286L4.47132 14.0809C4.8464 14.456 5.3551 14.6667 5.88554 14.6667H10.1143C10.6447 14.6667 11.1534 14.456 11.5285 14.0809L14.0808 11.5286C14.4559 11.1536 14.6666 10.6449 14.6666 10.1144V5.88566C14.6666 5.35523 14.4559 4.84652 14.0808 4.47145L11.5285 1.91916C11.1534 1.54409 10.6447 1.33337 10.1143 1.33337H5.88554ZM5.41413 2.86197C5.53916 2.73695 5.70873 2.66671 5.88554 2.66671H10.1143C10.2911 2.66671 10.4607 2.73695 10.5857 2.86197L13.138 5.41426C13.263 5.53928 13.3333 5.70885 13.3333 5.88566V10.1144C13.3333 10.2912 13.263 10.4608 13.138 10.5858L10.5857 13.1381C10.4607 13.2631 10.2911 13.3334 10.1143 13.3334H5.88554C5.70873 13.3334 5.53916 13.2631 5.41413 13.1381L2.86185 10.5858C2.73682 10.4608 2.66659 10.2912 2.66659 10.1144V5.88566C2.66659 5.70885 2.73682 5.53928 2.86185 5.41425L5.41413 2.86197Z" fill="#9AA1B4"/>
</svg>
