<svg width="16" height="16" viewBox="0 0 16 16" fill="none" xmlns="http://www.w3.org/2000/svg">
<path d="M9.66675 2.66671C10.0349 2.66671 10.3334 2.36823 10.3334 2.00004C10.3334 1.63185 10.0349 1.33337 9.66675 1.33337H6.33341C5.96522 1.33337 5.66675 1.63185 5.66675 2.00004C5.66675 2.36823 5.96522 2.66671 6.33341 2.66671L9.66675 2.66671Z" fill="#9AA1B4"/>
<path d="M6.00008 11.3334C6.00008 11.7016 6.29856 12 6.66675 12C7.03494 12 7.33341 11.7016 7.33341 11.3334V6.66671C7.33341 6.29852 7.03494 6.00004 6.66675 6.00004C6.29856 6.00004 6.00008 6.29852 6.00008 6.66671V11.3334Z" fill="#9AA1B4"/>
<path d="M9.33341 12C8.96522 12 8.66675 11.7016 8.66675 11.3334V6.66671C8.66675 6.29852 8.96522 6.00004 9.33341 6.00004C9.7016 6.00004 10.0001 6.29852 10.0001 6.66671V11.3334C10.0001 11.7016 9.7016 12 9.33341 12Z" fill="#9AA1B4"/>
<path fill-rule="evenodd" clip-rule="evenodd" d="M1.66675 4.00004C1.66675 3.63185 1.96522 3.33337 2.33341 3.33337H13.6667C14.0349 3.33337 14.3334 3.63185 14.3334 4.00004C14.3334 4.36823 14.0349 4.66671 13.6667 4.66671H13.0001V12C13.0001 13.4728 11.8062 14.6667 10.3334 14.6667H5.66675C4.19399 14.6667 3.00008 13.4728 3.00008 12V4.66671H2.33341C1.96522 4.66671 1.66675 4.36823 1.66675 4.00004ZM4.33341 4.66671H11.6667V12C11.6667 12.7364 11.0698 13.3334 10.3334 13.3334H5.66675C4.93037 13.3334 4.33341 12.7364 4.33341 12V4.66671Z" fill="#9AA1B4"/>
</svg>
