<svg width="16" height="16" viewBox="0 0 16 16" fill="none" xmlns="http://www.w3.org/2000/svg">
<path d="M12.4713 6.47145C12.7317 6.2111 12.7317 5.78899 12.4713 5.52864L8.47171 1.52902C8.34669 1.404 8.17673 1.33337 7.99992 1.33337C7.82311 1.33337 7.65354 1.40361 7.52851 1.52864L3.52851 5.52864C3.26816 5.78899 3.26816 6.2111 3.52851 6.47145C3.78886 6.7318 4.21097 6.7318 4.47132 6.47145L7.33325 3.60952V10C7.33325 10.3682 7.63173 10.6667 7.99992 10.6667C8.36811 10.6667 8.66659 10.3682 8.66659 10V3.60952L11.5285 6.47145C11.7889 6.7318 12.211 6.7318 12.4713 6.47145Z" fill="white"/>
<path d="M2.66659 10.6667C2.66659 10.2985 2.36811 10 1.99992 10C1.63173 10 1.33325 10.2985 1.33325 10.6667V12C1.33325 13.4728 2.52716 14.6667 3.99992 14.6667H11.9999C13.4727 14.6667 14.6666 13.4728 14.6666 12V10.6667C14.6666 10.2985 14.3681 10 13.9999 10C13.6317 10 13.3333 10.2985 13.3333 10.6667V12C13.3333 12.7364 12.7363 13.3334 11.9999 13.3334H3.99992C3.26354 13.3334 2.66659 12.7364 2.66659 12V10.6667Z" fill="white"/>
</svg>
